<svg width="95" height="95" viewBox="0 0 95 95" fill="none" xmlns="http://www.w3.org/2000/svg">
<path d="M67.4896 80.275C63.6104 84.0354 59.375 83.4417 55.2979 81.6604C50.9834 79.8396 47.025 79.7604 42.4729 81.6604C36.7729 84.1146 33.7646 83.4021 30.3604 80.275C11.0438 60.3646 13.8938 30.0438 35.8229 28.9354C41.1667 29.2125 44.8875 31.8646 48.0146 32.1021C52.6854 31.1521 57.1584 28.4208 62.1459 28.7771C68.1229 29.2521 72.6354 31.6271 75.6042 35.9021C63.2542 43.3042 66.1834 59.5729 77.5042 64.125C75.2479 70.0625 72.3188 75.9604 67.45 80.3146L67.4896 80.275ZM47.6188 28.6979C47.025 19.8708 54.1896 12.5875 62.4229 11.875C63.5709 22.0875 53.1604 29.6875 47.6188 28.6979Z" fill="#797979"/>
</svg>
