<svg width="85" height="85" viewBox="0 0 85 85" fill="none" xmlns="http://www.w3.org/2000/svg">
<path d="M63.3958 38.6041C52.0625 31.8749 33.1146 31.1666 22.3125 34.5312C20.5416 35.0624 18.7708 33.9999 18.2396 32.4062C17.7083 30.6353 18.7708 28.8645 20.3646 28.3333C32.9375 24.6145 53.6562 25.3228 66.7604 33.1145C68.3541 33.9999 68.8854 36.1249 68 37.7187C67.1146 38.9583 64.9896 39.4895 63.3958 38.6041ZM63.0416 48.5207C62.1562 49.7603 60.5625 50.2916 59.3229 49.4062C49.7604 43.5624 35.2396 41.7916 24.0833 45.3333C22.6666 45.6874 21.0729 44.9791 20.7187 43.5624C20.3646 42.1458 21.0729 40.552 22.4896 40.1978C35.4166 36.302 51.3541 38.2499 62.3333 44.9791C63.3958 45.5103 63.9271 47.2812 63.0416 48.5207ZM58.7916 58.2603C58.0833 59.3228 56.8437 59.677 55.7812 58.9687C47.4583 53.8332 37.0104 52.7707 24.6146 55.6041C23.375 55.9582 22.3125 55.0728 21.9583 54.0103C21.6041 52.7707 22.4896 51.7082 23.5521 51.3541C37.0104 48.3437 48.6979 49.5833 57.9062 55.2499C59.1458 55.7812 59.3229 57.1978 58.7916 58.2603ZM42.5 7.08325C37.849 7.08325 33.2436 7.99933 28.9466 9.77919C24.6497 11.559 20.7454 14.1678 17.4566 17.4566C10.8147 24.0985 7.08331 33.1068 7.08331 42.4999C7.08331 51.893 10.8147 60.9014 17.4566 67.5433C20.7454 70.832 24.6497 73.4408 28.9466 75.2206C33.2436 77.0005 37.849 77.9166 42.5 77.9166C51.8931 77.9166 60.9014 74.1852 67.5433 67.5433C74.1853 60.9014 77.9166 51.893 77.9166 42.4999C77.9166 37.8489 77.0006 33.2435 75.2207 28.9465C73.4409 24.6496 70.8321 20.7453 67.5433 17.4566C64.2546 14.1678 60.3503 11.559 56.0533 9.77919C51.7564 7.99933 47.151 7.08325 42.5 7.08325Z" fill="#797979"/>
</svg>
