<svg width="86" height="86" viewBox="0 0 86 86" fill="none" xmlns="http://www.w3.org/2000/svg">
<path fill-rule="evenodd" clip-rule="evenodd" d="M29.4442 29.6914C33.1995 25.9934 37.6751 24.1624 43 24.1624C48.3248 24.1624 52.8004 25.9899 56.5557 29.6914C60.311 33.393 62.1529 37.7826 62.1529 42.9999C62.1529 48.2173 60.311 52.6033 56.5557 56.3049C52.8004 60.0064 48.3248 61.8339 43 61.8339C37.6751 61.8339 33.1995 60.0064 29.4442 56.3049C25.6889 52.6033 23.847 48.2137 23.847 42.9999C23.847 37.7862 25.6889 33.3894 29.4442 29.6914ZM54.4451 43.0035L35.8333 53.4274V32.5653L54.4451 43.0035Z" fill="#797979"/>
<path fill-rule="evenodd" clip-rule="evenodd" d="M68.3377 67.9614C75.3371 61.0671 78.8357 52.7466 78.8333 42.9999C78.8333 33.2509 75.3348 24.9292 68.3377 18.0349C61.3383 11.1405 52.8923 7.69336 43 7.69336C33.1076 7.69336 24.6617 11.1405 17.6622 18.0349C10.6628 24.9292 7.16424 33.2509 7.16663 42.9999C7.16663 52.7466 10.6652 61.0671 17.6622 67.9614C24.6617 74.8558 33.1076 78.3029 43 78.3029C52.8947 78.3029 61.3406 74.8558 68.3377 67.9614ZM43 19.4682C36.4532 19.4682 30.7915 21.7759 26.1511 26.3482C21.5071 30.9241 19.1529 36.5141 19.1529 42.9999C19.1529 49.4822 21.5071 55.0758 26.1511 59.6481C30.7915 64.2204 36.4496 66.5281 43 66.5281C49.5503 66.5281 55.2084 64.2204 59.8488 59.6481C64.4928 55.0758 66.847 49.4822 66.847 42.9999C66.847 36.5141 64.4928 30.9241 59.8488 26.3482C55.2084 21.7759 49.5467 19.4682 43 19.4682Z" fill="#797979"/>
</svg>
